<svg viewBox="0 0 680 220" xmlns="http://www.w3.org/2000/svg" font-family="system-ui, sans-serif">
  <rect width="680" height="220" fill="#ffffff" rx="8"/>
  <text x="20" y="22" font-size="10" font-weight="700" fill="#6c757d" letter-spacing="1.2">TREE INDEX — TECHNICAL ARCHITECTURE</text>
  <defs><marker id="a" markerWidth="7" markerHeight="7" refX="5" refY="3" orient="auto"><path d="M0,0 L0,6 L7,3 z" fill="#0F528C"/></marker></defs>
  <rect x="20" y="60" width="100" height="56" rx="6" fill="#f1f5f9" stroke="#cbd5e1" stroke-width="1.2"/>
  <text x="70" y="84" text-anchor="middle" font-size="10" font-weight="600" fill="#1A1A2E">Browser</text>
  <text x="70" y="99" text-anchor="middle" font-size="8" fill="#64748b">Leaflet map</text>
  <text x="70" y="110" text-anchor="middle" font-size="8" fill="#64748b">polygon click</text>
  <line x1="120" y1="88" x2="154" y2="88" stroke="#0F528C" stroke-width="1.2" marker-end="url(#a)"/>
  <rect x="158" y="60" width="100" height="56" rx="6" fill="#f1f5f9" stroke="#cbd5e1" stroke-width="1.2"/>
  <text x="208" y="84" text-anchor="middle" font-size="10" font-weight="600" fill="#1A1A2E">Flask</text>
  <text x="208" y="99" text-anchor="middle" font-size="8" fill="#64748b">routing</text>
  <text x="208" y="110" text-anchor="middle" font-size="8" fill="#64748b">OAuth2 auth</text>
  <line x1="258" y1="88" x2="292" y2="88" stroke="#0F528C" stroke-width="1.2" marker-end="url(#a)"/>
  <rect x="296" y="60" width="100" height="56" rx="6" fill="#f1f5f9" stroke="#cbd5e1" stroke-width="1.2"/>
  <text x="346" y="80" text-anchor="middle" font-size="10" font-weight="600" fill="#1A1A2E">Sentinel Hub</text>
  <text x="346" y="95" text-anchor="middle" font-size="8" fill="#64748b">ESA API</text>
  <text x="346" y="107" text-anchor="middle" font-size="8" fill="#64748b">GeoTIFF</text>
  <line x1="396" y1="88" x2="430" y2="88" stroke="#0F528C" stroke-width="1.2" marker-end="url(#a)"/>
  <rect x="434" y="60" width="100" height="56" rx="6" fill="#f1f5f9" stroke="#cbd5e1" stroke-width="1.2"/>
  <text x="484" y="80" text-anchor="middle" font-size="10" font-weight="600" fill="#1A1A2E">Processing</text>
  <text x="484" y="95" text-anchor="middle" font-size="8" fill="#64748b">NDVI · GeoPandas</text>
  <text x="484" y="107" text-anchor="middle" font-size="8" fill="#64748b">Prophet anomaly</text>
  <line x1="534" y1="88" x2="568" y2="88" stroke="#0F528C" stroke-width="1.2" marker-end="url(#a)"/>
  <rect x="572" y="60" width="90" height="56" rx="6" fill="#0F528C"/>
  <text x="617" y="84" text-anchor="middle" font-size="10" font-weight="600" fill="#fff">Result</text>
  <text x="617" y="99" text-anchor="middle" font-size="8" fill="#bcd4e6">map overlay</text>
  <text x="617" y="110" text-anchor="middle" font-size="8" fill="#bcd4e6">Plotly chart</text>
  <path d="M617,116 Q617,160 70,160 Q70,160 70,116" fill="none" stroke="#0F528C" stroke-width="1" stroke-dasharray="4,3" marker-end="url(#a)" opacity="0.4"/>
  <text x="344" y="175" text-anchor="middle" font-size="8" fill="#94a3b8">result returned to browser</text>
  <text x="20" y="200" font-size="8" fill="#94a3b8">stack:  Python · Flask · GeoPandas · NumPy · Prophet · Leaflet · OpenStreetMap · Sentinel Hub API (ESA)</text>
</svg>
