<svg viewBox="0 0 700 160" xmlns="http://www.w3.org/2000/svg" font-family="system-ui, sans-serif">
  <rect width="700" height="160" fill="#ffffff" rx="8"/>
  <text x="20" y="22" font-size="10" font-weight="700" fill="#6c757d" letter-spacing="1.2">TREE INDEX — MODEL BIZNESOWY</text>
  <defs><marker id="a" markerWidth="7" markerHeight="7" refX="5" refY="3" orient="auto"><path d="M0,0 L0,6 L7,3 z" fill="#0F528C"/></marker></defs>
  <rect x="24" y="44" width="148" height="80" rx="8" fill="#1A1A2E"/>
  <text x="98" y="68" text-anchor="middle" font-size="11" font-weight="700" fill="#fff">PROBLEM</text>
  <text x="98" y="86" text-anchor="middle" font-size="9" fill="#adb5bd">Dane satelitarne ESA istnieją</text>
  <text x="98" y="100" text-anchor="middle" font-size="9" fill="#adb5bd">ale wymagają OAuth, GeoTIFF</text>
  <text x="98" y="114" text-anchor="middle" font-size="9" fill="#adb5bd">i matematyki pasm spektralnych</text>
  <line x1="172" y1="84" x2="200" y2="84" stroke="#0F528C" stroke-width="1.5" marker-end="url(#a)"/>
  <rect x="204" y="44" width="148" height="80" rx="8" fill="#0F528C"/>
  <text x="278" y="68" text-anchor="middle" font-size="11" font-weight="700" fill="#fff">ROZWIĄZANIE</text>
  <text x="278" y="86" text-anchor="middle" font-size="9" fill="#bcd4e6">Kliknij lokalizację.</text>
  <text x="278" y="100" text-anchor="middle" font-size="9" fill="#bcd4e6">Zobacz stan roślinności.</text>
  <text x="278" y="114" text-anchor="middle" font-size="9" fill="#bcd4e6">To wszystko.</text>
  <line x1="352" y1="84" x2="380" y2="84" stroke="#0F528C" stroke-width="1.5" marker-end="url(#a)"/>
  <rect x="384" y="44" width="148" height="80" rx="8" fill="#1A1A2E"/>
  <text x="458" y="68" text-anchor="middle" font-size="11" font-weight="700" fill="#fff">KLIENCI</text>
  <text x="458" y="86" text-anchor="middle" font-size="9" fill="#adb5bd">Specjaliści zieleni miejskiej</text>
  <text x="458" y="100" text-anchor="middle" font-size="9" fill="#adb5bd">Zarządzający gruntami</text>
  <text x="458" y="114" text-anchor="middle" font-size="9" fill="#adb5bd">Badacze środowiskowi</text>
  <line x1="532" y1="84" x2="560" y2="84" stroke="#0F528C" stroke-width="1.5" marker-end="url(#a)"/>
  <rect x="564" y="44" width="112" height="80" rx="8" fill="#0F528C"/>
  <text x="620" y="65" text-anchor="middle" font-size="11" font-weight="700" fill="#fff">KANAŁ</text>
  <text x="620" y="83" text-anchor="middle" font-size="9" fill="#bcd4e6">sieć zawodowa</text>
  <text x="620" y="97" text-anchor="middle" font-size="9" fill="#bcd4e6">zbudowana na BOOMBRIX</text>
  <text x="620" y="111" text-anchor="middle" font-size="9" fill="#bcd4e6">wiedza o NDVI</text>
</svg>
